<?xml version="1.0" standalone="no"?>
<!DOCTYPE svg PUBLIC "-//W3C//DTD SVG 20010904//EN"
 "http://www.w3.org/TR/2001/REC-SVG-20010904/DTD/svg10.dtd">
<svg version="1.0" xmlns="http://www.w3.org/2000/svg"
 width="225.000000pt" height="225.000000pt" viewBox="0 0 225.000000 225.000000"
 preserveAspectRatio="xMidYMid meet">

<g transform="translate(0.000000,225.000000) scale(0.100000,-0.100000)"
fill="#000000" stroke="none">
<path d="M509 1960 c-257 -9 -293 -17 -374 -91 -70 -64 -103 -133 -117 -247
-15 -115 -15 -879 0 -994 18 -139 83 -243 186 -295 78 -40 202 -46 921 -46
719 0 843 6 921 46 102 52 169 159 187 301 14 114 14 889 -1 996 -15 109 -48
175 -117 239 -82 74 -109 80 -416 91 -295 11 -862 10 -1190 0z m1233 -139
c236 -10 262 -17 311 -90 40 -58 47 -117 53 -471 7 -343 -6 -637 -32 -698 -19
-47 -60 -91 -101 -108 -102 -44 -1617 -44 -1701 0 -34 18 -75 62 -96 104 -27
52 -39 330 -32 702 3 179 10 346 15 372 11 66 57 137 105 161 33 17 66 21 230
27 279 10 1009 10 1248 1z"/>
<path d="M910 1124 c0 -337 3 -424 13 -418 6 4 148 100 315 213 242 164 300
207 290 217 -17 16 -605 414 -612 414 -4 0 -6 -192 -6 -426z"/>
</g>
</svg>
