<?xml version="1.0" standalone="no"?>
<!DOCTYPE svg PUBLIC "-//W3C//DTD SVG 20010904//EN"
 "http://www.w3.org/TR/2001/REC-SVG-20010904/DTD/svg10.dtd">
<svg version="1.0" xmlns="http://www.w3.org/2000/svg"
 width="231.000000pt" height="219.000000pt" viewBox="0 0 231.000000 219.000000"
 preserveAspectRatio="xMidYMid meet">

<g transform="translate(0.000000,219.000000) scale(0.100000,-0.100000)"
fill="#000000" stroke="none">
<path d="M1025 2170 c-125 -22 -206 -49 -315 -106 -158 -82 -300 -208 -397
-355 l-46 -69 -25 22 c-14 13 -74 72 -134 133 l-108 110 0 -378 0 -377 370 0
c204 0 370 3 370 8 0 4 -70 77 -155 162 -85 85 -155 158 -155 161 0 21 108
164 166 221 112 109 190 158 326 206 425 150 886 -47 1077 -460 59 -127 75
-202 75 -353 0 -155 -21 -250 -86 -378 -228 -455 -781 -619 -1219 -363 -142
84 -277 233 -350 391 l-31 65 -119 0 c-65 0 -119 -2 -119 -3 0 -12 42 -123 65
-173 125 -267 375 -486 660 -578 502 -163 1053 59 1304 525 199 368 165 824
-86 1160 -175 235 -428 386 -723 434 -121 19 -219 18 -345 -5z"/>
<path d="M1040 1318 l0 -293 258 -152 c141 -84 264 -155 273 -158 24 -9 109
133 88 146 -8 5 -79 48 -159 96 -80 47 -178 106 -217 131 l-73 44 0 239 0 239
-85 0 -85 0 0 -292z"/>
</g>
</svg>
