<?xml version="1.0" standalone="no"?>
<!DOCTYPE svg PUBLIC "-//W3C//DTD SVG 20010904//EN"
 "http://www.w3.org/TR/2001/REC-SVG-20010904/DTD/svg10.dtd">
<svg version="1.0" xmlns="http://www.w3.org/2000/svg"
 width="217.000000pt" height="232.000000pt" viewBox="0 0 217.000000 232.000000"
 preserveAspectRatio="xMidYMid meet">

<g transform="translate(0.000000,232.000000) scale(0.100000,-0.100000)"
fill="#000000" stroke="none">
<path d="M1083 2209 c-64 -19 -103 -94 -103 -199 0 -89 -18 -223 -40 -292 -23
-76 -67 -131 -156 -194 -101 -72 -152 -84 -370 -84 -162 0 -189 -2 -222 -19
-47 -24 -66 -45 -91 -101 -28 -61 -27 -91 19 -583 41 -438 48 -477 93 -525 42
-45 68 -52 204 -52 l128 0 58 36 58 36 57 -25 c104 -47 123 -48 567 -45 l420
3 56 26 c63 30 93 65 110 132 12 43 8 73 -17 134 -3 6 8 14 25 18 47 10 111
73 121 120 9 40 -2 108 -21 131 -5 6 3 17 22 28 17 10 44 39 60 64 45 72 38
170 -18 234 -14 15 -13 20 4 45 80 115 48 250 -74 309 l-58 29 -277 3 c-153 2
-278 5 -278 7 0 2 9 43 21 92 29 120 29 306 0 415 -53 202 -162 296 -298 257z
m117 -108 c45 -32 79 -94 101 -181 18 -71 21 -104 17 -205 -5 -104 -10 -135
-42 -229 -20 -60 -36 -112 -36 -117 0 -4 145 -9 323 -11 317 -3 323 -3 370
-27 61 -30 83 -69 73 -134 -7 -46 -45 -97 -72 -97 -10 0 -14 -13 -14 -40 0
-30 4 -40 16 -40 8 0 29 -13 45 -29 44 -44 40 -89 -11 -145 -23 -24 -52 -47
-65 -50 -20 -5 -25 -13 -25 -37 0 -17 9 -42 20 -56 28 -36 27 -94 -2 -120 -32
-28 -56 -40 -105 -48 -40 -6 -43 -9 -43 -39 0 -19 8 -38 20 -49 31 -26 28
-106 -6 -146 -49 -58 -85 -62 -521 -59 l-388 3 -87 42 -88 42 0 524 0 523 38
13 c64 23 124 63 195 130 110 104 134 170 146 405 8 158 9 160 36 184 31 26
62 24 105 -7z m-610 -1275 l0 -535 -33 -25 c-31 -24 -42 -26 -138 -26 -115 0
-137 8 -164 60 -10 20 -27 169 -56 486 -40 449 -40 458 -23 497 32 70 55 77
247 77 l167 0 0 -534z"/>
</g>
</svg>
