<?xml version="1.0" standalone="no"?>
<!DOCTYPE svg PUBLIC "-//W3C//DTD SVG 20010904//EN"
 "http://www.w3.org/TR/2001/REC-SVG-20010904/DTD/svg10.dtd">
<svg version="1.0" xmlns="http://www.w3.org/2000/svg"
 width="157.000000pt" height="157.000000pt" viewBox="0 0 157.000000 157.000000"
 preserveAspectRatio="xMidYMid meet">

<g transform="translate(0.000000,157.000000) scale(0.100000,-0.100000)"
fill="#000000" stroke="none">
<path d="M397 1403 c-4 -3 -7 -19 -7 -35 l0 -28 396 0 395 0 -3 33 -3 32 -386
3 c-212 1 -388 -1 -392 -5z"/>
<path d="M260 1210 l0 -30 525 0 525 0 0 30 0 30 -525 0 -525 0 0 -30z"/>
<path d="M151 1066 c-50 -27 -50 -34 -51 -448 l0 -388 29 -32 29 -33 627 0
627 0 29 33 29 32 0 386 c0 418 -1 428 -55 452 -40 18 -1231 16 -1264 -2z
m1253 -72 c3 -9 6 -179 6 -378 0 -268 -3 -365 -12 -374 -17 -17 -1209 -17
-1226 0 -9 9 -12 106 -12 374 0 199 3 369 6 378 6 14 69 16 619 16 550 0 613
-2 619 -16z"/>
<path d="M625 858 c-3 -13 -4 -126 -3 -252 3 -198 5 -230 19 -239 24 -15 371
227 367 256 -3 24 -330 257 -359 257 -11 0 -21 -9 -24 -22z m185 -155 c61 -42
110 -79 110 -82 0 -7 -203 -149 -224 -157 -14 -5 -16 12 -16 155 0 104 4 161
10 161 6 0 60 -35 120 -77z"/>
</g>
</svg>
