<?xml version="1.0" standalone="no"?>
<!DOCTYPE svg PUBLIC "-//W3C//DTD SVG 20010904//EN"
 "http://www.w3.org/TR/2001/REC-SVG-20010904/DTD/svg10.dtd">
<svg version="1.0" xmlns="http://www.w3.org/2000/svg"
 width="200.000000pt" height="200.000000pt" viewBox="0 0 200.000000 200.000000"
 preserveAspectRatio="xMidYMid meet">

<g transform="translate(0.000000,200.000000) scale(0.100000,-0.100000)"
fill="#000000" stroke="none">
<path d="M843 1886 c-350 -67 -621 -318 -714 -661 -32 -115 -32 -335 0 -450
88 -324 340 -570 668 -652 93 -23 313 -23 406 0 335 83 591 339 674 674 23 93
23 313 0 406 -82 328 -332 584 -652 667 -103 27 -284 35 -382 16z m381 -91
c282 -82 486 -286 572 -570 23 -79 27 -107 27 -225 0 -118 -4 -146 -27 -225
-85 -282 -289 -486 -571 -571 -79 -23 -107 -27 -225 -27 -118 0 -146 4 -225
27 -284 85 -485 287 -571 573 -23 76 -27 106 -27 223 0 117 4 147 27 223 97
323 350 545 679 598 89 14 244 2 341 -26z"/>
<path d="M965 1598 c-3 -7 -4 -153 -3 -323 l3 -310 233 -3 232 -2 0 40 0 40
-195 0 -195 0 -2 283 -3 282 -33 3 c-20 2 -34 -2 -37 -10z"/>
</g>
</svg>
